<?xml version="1.0" encoding="utf-8" standalone="no"?>
<!DOCTYPE svg PUBLIC "-//W3C//DTD SVG 1.1//EN"
  "http://www.w3.org/Graphics/SVG/1.1/DTD/svg11.dtd">
<!-- Created with matplotlib (https://matplotlib.org/) -->
<svg height="288pt" version="1.1" viewBox="0 0 432 288" width="432pt" xmlns="http://www.w3.org/2000/svg" xmlns:xlink="http://www.w3.org/1999/xlink">
 <defs>
  <style type="text/css">
*{stroke-linecap:butt;stroke-linejoin:round;}
  </style>
 </defs>
 <g id="figure_1">
  <g id="patch_1">
   <path d="M 0 288
L 432 288
L 432 0
L 0 0
z
" style="fill:#ffffff;"/>
  </g>
  <g id="axes_1">
   <g id="patch_2">
    <path d="M 54 252
L 388.8 252
L 388.8 34.56
L 54 34.56
z
" style="fill:#ffffff;"/>
   </g>
   <g id="PathCollection_1">
    <defs>
     <path d="M 0 3
C 0.795609 3 1.55874 2.683901 2.12132 2.12132
C 2.683901 1.55874 3 0.795609 3 0
C 3 -0.795609 2.683901 -1.55874 2.12132 -2.12132
C 1.55874 -2.683901 0.795609 -3 0 -3
C -0.795609 -3 -1.55874 -2.683901 -2.12132 -2.12132
C -2.683901 -1.55874 -3 -0.795609 -3 0
C -3 0.795609 -2.683901 1.55874 -2.12132 2.12132
C -1.55874 2.683901 -0.795609 3 0 3
z
" id="C0_0_92ce6c73a5"/>
    </defs>
    <g clip-path="url(#p5a2bf7ec2e)">
     <use style="fill:#440154;stroke:#440154;" x="69.218182" xlink:href="#C0_0_92ce6c73a5" y="242.116364"/>
    </g>
    <g clip-path="url(#p5a2bf7ec2e)">
     <use style="fill:#450457;stroke:#450457;" x="227.485197" xlink:href="#C0_0_92ce6c73a5" y="224.031008"/>
    </g>
    <g clip-path="url(#p5a2bf7ec2e)">
     <use style="fill:#46085c;stroke:#46085c;" x="269.627455" xlink:href="#C0_0_92ce6c73a5" y="214.399719"/>
    </g>
    <g clip-path="url(#p5a2bf7ec2e)">
     <use style="fill:#460b5e;stroke:#460b5e;" x="290.828332" xlink:href="#C0_0_92ce6c73a5" y="207.131772"/>
    </g>
    <g clip-path="url(#p5a2bf7ec2e)">
     <use style="fill:#471063;stroke:#471063;" x="304.361083" xlink:href="#C0_0_92ce6c73a5" y="200.94616"/>
    </g>
    <g clip-path="url(#p5a2bf7ec2e)">
     <use style="fill:#481467;stroke:#481467;" x="313.300743" xlink:href="#C0_0_92ce6c73a5" y="195.838433"/>
    </g>
    <g clip-path="url(#p5a2bf7ec2e)">
     <use style="fill:#481769;stroke:#481769;" x="320.19038" xlink:href="#C0_0_92ce6c73a5" y="191.114712"/>
    </g>
    <g clip-path="url(#p5a2bf7ec2e)">
     <use style="fill:#481b6d;stroke:#481b6d;" x="325.510061" xlink:href="#C0_0_92ce6c73a5" y="186.859509"/>
    </g>
    <g clip-path="url(#p5a2bf7ec2e)">
     <use style="fill:#481d6f;stroke:#481d6f;" x="329.804731" xlink:href="#C0_0_92ce6c73a5" y="182.933454"/>
    </g>
    <g clip-path="url(#p5a2bf7ec2e)">
     <use style="fill:#482173;stroke:#482173;" x="333.580408" xlink:href="#C0_0_92ce6c73a5" y="179.050396"/>
    </g>
    <g clip-path="url(#p5a2bf7ec2e)">
     <use style="fill:#482576;stroke:#482576;" x="336.91494" xlink:href="#C0_0_92ce6c73a5" y="175.239987"/>
    </g>
    <g clip-path="url(#p5a2bf7ec2e)">
     <use style="fill:#482878;stroke:#482878;" x="339.25041" xlink:href="#C0_0_92ce6c73a5" y="172.304342"/>
    </g>
    <g clip-path="url(#p5a2bf7ec2e)">
     <use style="fill:#472c7a;stroke:#472c7a;" x="341.508031" xlink:href="#C0_0_92ce6c73a5" y="169.20857"/>
    </g>
    <g clip-path="url(#p5a2bf7ec2e)">
     <use style="fill:#472e7c;stroke:#472e7c;" x="343.778626" xlink:href="#C0_0_92ce6c73a5" y="165.835543"/>
    </g>
    <g clip-path="url(#p5a2bf7ec2e)">
     <use style="fill:#46327e;stroke:#46327e;" x="345.348581" xlink:href="#C0_0_92ce6c73a5" y="163.323935"/>
    </g>
    <g clip-path="url(#p5a2bf7ec2e)">
     <use style="fill:#453581;stroke:#453581;" x="346.918536" xlink:href="#C0_0_92ce6c73a5" y="160.632927"/>
    </g>
    <g clip-path="url(#p5a2bf7ec2e)">
     <use style="fill:#453882;stroke:#453882;" x="348.410642" xlink:href="#C0_0_92ce6c73a5" y="157.904852"/>
    </g>
    <g clip-path="url(#p5a2bf7ec2e)">
     <use style="fill:#443b84;stroke:#443b84;" x="349.760024" xlink:href="#C0_0_92ce6c73a5" y="155.283528"/>
    </g>
    <g clip-path="url(#p5a2bf7ec2e)">
     <use style="fill:#423f85;stroke:#423f85;" x="351.083457" xlink:href="#C0_0_92ce6c73a5" y="152.561384"/>
    </g>
    <g clip-path="url(#p5a2bf7ec2e)">
     <use style="fill:#424186;stroke:#424186;" x="352.134419" xlink:href="#C0_0_92ce6c73a5" y="150.279587"/>
    </g>
    <g clip-path="url(#p5a2bf7ec2e)">
     <use style="fill:#404588;stroke:#404588;" x="353.094557" xlink:href="#C0_0_92ce6c73a5" y="148.085266"/>
    </g>
    <g clip-path="url(#p5a2bf7ec2e)">
     <use style="fill:#3f4788;stroke:#3f4788;" x="354.002795" xlink:href="#C0_0_92ce6c73a5" y="145.905772"/>
    </g>
    <g clip-path="url(#p5a2bf7ec2e)">
     <use style="fill:#3e4a89;stroke:#3e4a89;" x="354.885084" xlink:href="#C0_0_92ce6c73a5" y="143.687729"/>
    </g>
    <g clip-path="url(#p5a2bf7ec2e)">
     <use style="fill:#3d4e8a;stroke:#3d4e8a;" x="355.481926" xlink:href="#C0_0_92ce6c73a5" y="142.119086"/>
    </g>
    <g clip-path="url(#p5a2bf7ec2e)">
     <use style="fill:#3c508b;stroke:#3c508b;" x="356.273391" xlink:href="#C0_0_92ce6c73a5" y="139.948487"/>
    </g>
    <g clip-path="url(#p5a2bf7ec2e)">
     <use style="fill:#3a538b;stroke:#3a538b;" x="356.935107" xlink:href="#C0_0_92ce6c73a5" y="138.058109"/>
    </g>
    <g clip-path="url(#p5a2bf7ec2e)">
     <use style="fill:#39558c;stroke:#39558c;" x="357.48005" xlink:href="#C0_0_92ce6c73a5" y="136.439056"/>
    </g>
    <g clip-path="url(#p5a2bf7ec2e)">
     <use style="fill:#38598c;stroke:#38598c;" x="358.063918" xlink:href="#C0_0_92ce6c73a5" y="134.637638"/>
    </g>
    <g clip-path="url(#p5a2bf7ec2e)">
     <use style="fill:#365c8d;stroke:#365c8d;" x="358.712659" xlink:href="#C0_0_92ce6c73a5" y="132.561929"/>
    </g>
    <g clip-path="url(#p5a2bf7ec2e)">
     <use style="fill:#355e8d;stroke:#355e8d;" x="359.218678" xlink:href="#C0_0_92ce6c73a5" y="130.885052"/>
    </g>
    <g clip-path="url(#p5a2bf7ec2e)">
     <use style="fill:#34618d;stroke:#34618d;" x="359.776596" xlink:href="#C0_0_92ce6c73a5" y="128.972435"/>
    </g>
    <g clip-path="url(#p5a2bf7ec2e)">
     <use style="fill:#33638d;stroke:#33638d;" x="360.347488" xlink:href="#C0_0_92ce6c73a5" y="126.950101"/>
    </g>
    <g clip-path="url(#p5a2bf7ec2e)">
     <use style="fill:#31668e;stroke:#31668e;" x="360.827557" xlink:href="#C0_0_92ce6c73a5" y="125.194645"/>
    </g>
    <g clip-path="url(#p5a2bf7ec2e)">
     <use style="fill:#30698e;stroke:#30698e;" x="361.463324" xlink:href="#C0_0_92ce6c73a5" y="122.797201"/>
    </g>
    <g clip-path="url(#p5a2bf7ec2e)">
     <use style="fill:#2f6b8e;stroke:#2f6b8e;" x="361.956368" xlink:href="#C0_0_92ce6c73a5" y="120.881618"/>
    </g>
    <g clip-path="url(#p5a2bf7ec2e)">
     <use style="fill:#2e6e8e;stroke:#2e6e8e;" x="362.384537" xlink:href="#C0_0_92ce6c73a5" y="119.169158"/>
    </g>
    <g clip-path="url(#p5a2bf7ec2e)">
     <use style="fill:#2d718e;stroke:#2d718e;" x="362.747832" xlink:href="#C0_0_92ce6c73a5" y="117.674648"/>
    </g>
    <g clip-path="url(#p5a2bf7ec2e)">
     <use style="fill:#2c728e;stroke:#2c728e;" x="363.098153" xlink:href="#C0_0_92ce6c73a5" y="116.193481"/>
    </g>
    <g clip-path="url(#p5a2bf7ec2e)">
     <use style="fill:#2b758e;stroke:#2b758e;" x="363.487398" xlink:href="#C0_0_92ce6c73a5" y="114.503261"/>
    </g>
    <g clip-path="url(#p5a2bf7ec2e)">
     <use style="fill:#2a778e;stroke:#2a778e;" x="363.824744" xlink:href="#C0_0_92ce6c73a5" y="112.999855"/>
    </g>
    <g clip-path="url(#p5a2bf7ec2e)">
     <use style="fill:#297a8e;stroke:#297a8e;" x="364.278863" xlink:href="#C0_0_92ce6c73a5" y="110.924146"/>
    </g>
    <g clip-path="url(#p5a2bf7ec2e)">
     <use style="fill:#287d8e;stroke:#287d8e;" x="364.668108" xlink:href="#C0_0_92ce6c73a5" y="109.100487"/>
    </g>
    <g clip-path="url(#p5a2bf7ec2e)">
     <use style="fill:#277f8e;stroke:#277f8e;" x="364.979504" xlink:href="#C0_0_92ce6c73a5" y="107.605977"/>
    </g>
    <g clip-path="url(#p5a2bf7ec2e)">
     <use style="fill:#26828e;stroke:#26828e;" x="365.251975" xlink:href="#C0_0_92ce6c73a5" y="106.267144"/>
    </g>
    <g clip-path="url(#p5a2bf7ec2e)">
     <use style="fill:#25838e;stroke:#25838e;" x="365.511472" xlink:href="#C0_0_92ce6c73a5" y="104.962413"/>
    </g>
    <g clip-path="url(#p5a2bf7ec2e)">
     <use style="fill:#24868e;stroke:#24868e;" x="365.783943" xlink:href="#C0_0_92ce6c73a5" y="103.56131"/>
    </g>
    <g clip-path="url(#p5a2bf7ec2e)">
     <use style="fill:#23898e;stroke:#23898e;" x="366.04344" xlink:href="#C0_0_92ce6c73a5" y="102.197272"/>
    </g>
    <g clip-path="url(#p5a2bf7ec2e)">
     <use style="fill:#228b8d;stroke:#228b8d;" x="366.328886" xlink:href="#C0_0_92ce6c73a5" y="100.664213"/>
    </g>
    <g clip-path="url(#p5a2bf7ec2e)">
     <use style="fill:#218e8d;stroke:#218e8d;" x="366.614333" xlink:href="#C0_0_92ce6c73a5" y="99.098535"/>
    </g>
    <g clip-path="url(#p5a2bf7ec2e)">
     <use style="fill:#21918c;stroke:#21918c;" x="366.899779" xlink:href="#C0_0_92ce6c73a5" y="97.500239"/>
    </g>
    <g clip-path="url(#p5a2bf7ec2e)">
     <use style="fill:#20928c;stroke:#20928c;" x="367.185225" xlink:href="#C0_0_92ce6c73a5" y="95.869325"/>
    </g>
    <g clip-path="url(#p5a2bf7ec2e)">
     <use style="fill:#1f958b;stroke:#1f958b;" x="367.366873" xlink:href="#C0_0_92ce6c73a5" y="94.810714"/>
    </g>
    <g clip-path="url(#p5a2bf7ec2e)">
     <use style="fill:#1f978b;stroke:#1f978b;" x="367.639345" xlink:href="#C0_0_92ce6c73a5" y="93.191661"/>
    </g>
    <g clip-path="url(#p5a2bf7ec2e)">
     <use style="fill:#1f9a8a;stroke:#1f9a8a;" x="367.795043" xlink:href="#C0_0_92ce6c73a5" y="92.248696"/>
    </g>
    <g clip-path="url(#p5a2bf7ec2e)">
     <use style="fill:#1e9d89;stroke:#1e9d89;" x="367.950741" xlink:href="#C0_0_92ce6c73a5" y="91.287939"/>
    </g>
    <g clip-path="url(#p5a2bf7ec2e)">
     <use style="fill:#1f9f88;stroke:#1f9f88;" x="368.145363" xlink:href="#C0_0_92ce6c73a5" y="90.064753"/>
    </g>
    <g clip-path="url(#p5a2bf7ec2e)">
     <use style="fill:#1fa187;stroke:#1fa187;" x="368.301061" xlink:href="#C0_0_92ce6c73a5" y="89.068413"/>
    </g>
    <g clip-path="url(#p5a2bf7ec2e)">
     <use style="fill:#20a386;stroke:#20a386;" x="368.443784" xlink:href="#C0_0_92ce6c73a5" y="88.138792"/>
    </g>
    <g clip-path="url(#p5a2bf7ec2e)">
     <use style="fill:#21a685;stroke:#21a685;" x="368.625432" xlink:href="#C0_0_92ce6c73a5" y="86.934881"/>
    </g>
    <g clip-path="url(#p5a2bf7ec2e)">
     <use style="fill:#23a983;stroke:#23a983;" x="368.768155" xlink:href="#C0_0_92ce6c73a5" y="85.972642"/>
    </g>
    <g clip-path="url(#p5a2bf7ec2e)">
     <use style="fill:#25ab82;stroke:#25ab82;" x="368.975752" xlink:href="#C0_0_92ce6c73a5" y="84.549298"/>
    </g>
    <g clip-path="url(#p5a2bf7ec2e)">
     <use style="fill:#27ad81;stroke:#27ad81;" x="369.18335" xlink:href="#C0_0_92ce6c73a5" y="83.102233"/>
    </g>
    <g clip-path="url(#p5a2bf7ec2e)">
     <use style="fill:#29af7f;stroke:#29af7f;" x="369.339048" xlink:href="#C0_0_92ce6c73a5" y="81.999142"/>
    </g>
    <g clip-path="url(#p5a2bf7ec2e)">
     <use style="fill:#2db27d;stroke:#2db27d;" x="369.481771" xlink:href="#C0_0_92ce6c73a5" y="80.971666"/>
    </g>
    <g clip-path="url(#p5a2bf7ec2e)">
     <use style="fill:#31b57b;stroke:#31b57b;" x="369.663419" xlink:href="#C0_0_92ce6c73a5" y="79.643212"/>
    </g>
    <g clip-path="url(#p5a2bf7ec2e)">
     <use style="fill:#34b679;stroke:#34b679;" x="369.883991" xlink:href="#C0_0_92ce6c73a5" y="78.004885"/>
    </g>
    <g clip-path="url(#p5a2bf7ec2e)">
     <use style="fill:#38b977;stroke:#38b977;" x="370.091588" xlink:href="#C0_0_92ce6c73a5" y="76.439207"/>
    </g>
    <g clip-path="url(#p5a2bf7ec2e)">
     <use style="fill:#3dbc74;stroke:#3dbc74;" x="370.286211" xlink:href="#C0_0_92ce6c73a5" y="74.949144"/>
    </g>
    <g clip-path="url(#p5a2bf7ec2e)">
     <use style="fill:#40bd72;stroke:#40bd72;" x="370.480833" xlink:href="#C0_0_92ce6c73a5" y="73.436842"/>
    </g>
    <g clip-path="url(#p5a2bf7ec2e)">
     <use style="fill:#46c06f;stroke:#46c06f;" x="370.675456" xlink:href="#C0_0_92ce6c73a5" y="71.9023"/>
    </g>
    <g clip-path="url(#p5a2bf7ec2e)">
     <use style="fill:#4ac16d;stroke:#4ac16d;" x="370.766279" xlink:href="#C0_0_92ce6c73a5" y="71.175802"/>
    </g>
    <g clip-path="url(#p5a2bf7ec2e)">
     <use style="fill:#50c46a;stroke:#50c46a;" x="370.921977" xlink:href="#C0_0_92ce6c73a5" y="69.912585"/>
    </g>
    <g clip-path="url(#p5a2bf7ec2e)">
     <use style="fill:#56c667;stroke:#56c667;" x="371.14255" xlink:href="#C0_0_92ce6c73a5" y="68.097822"/>
    </g>
    <g clip-path="url(#p5a2bf7ec2e)">
     <use style="fill:#5ac864;stroke:#5ac864;" x="371.259323" xlink:href="#C0_0_92ce6c73a5" y="67.123722"/>
    </g>
    <g clip-path="url(#p5a2bf7ec2e)">
     <use style="fill:#60ca60;stroke:#60ca60;" x="371.337172" xlink:href="#C0_0_92ce6c73a5" y="66.465426"/>
    </g>
    <g clip-path="url(#p5a2bf7ec2e)">
     <use style="fill:#65cb5e;stroke:#65cb5e;" x="371.46692" xlink:href="#C0_0_92ce6c73a5" y="65.353439"/>
    </g>
    <g clip-path="url(#p5a2bf7ec2e)">
     <use style="fill:#6ccd5a;stroke:#6ccd5a;" x="371.51882" xlink:href="#C0_0_92ce6c73a5" y="64.902713"/>
    </g>
    <g clip-path="url(#p5a2bf7ec2e)">
     <use style="fill:#73d056;stroke:#73d056;" x="371.622618" xlink:href="#C0_0_92ce6c73a5" y="63.989401"/>
    </g>
    <g clip-path="url(#p5a2bf7ec2e)">
     <use style="fill:#77d153;stroke:#77d153;" x="371.739392" xlink:href="#C0_0_92ce6c73a5" y="62.948582"/>
    </g>
    <g clip-path="url(#p5a2bf7ec2e)">
     <use style="fill:#7fd34e;stroke:#7fd34e;" x="371.830216" xlink:href="#C0_0_92ce6c73a5" y="62.128676"/>
    </g>
    <g clip-path="url(#p5a2bf7ec2e)">
     <use style="fill:#84d44b;stroke:#84d44b;" x="371.985914" xlink:href="#C0_0_92ce6c73a5" y="60.705333"/>
    </g>
    <g clip-path="url(#p5a2bf7ec2e)">
     <use style="fill:#8bd646;stroke:#8bd646;" x="372.102687" xlink:href="#C0_0_92ce6c73a5" y="59.624482"/>
    </g>
    <g clip-path="url(#p5a2bf7ec2e)">
     <use style="fill:#93d741;stroke:#93d741;" x="372.180536" xlink:href="#C0_0_92ce6c73a5" y="58.895019"/>
    </g>
    <g clip-path="url(#p5a2bf7ec2e)">
     <use style="fill:#98d83e;stroke:#98d83e;" x="372.258385" xlink:href="#C0_0_92ce6c73a5" y="58.156659"/>
    </g>
    <g clip-path="url(#p5a2bf7ec2e)">
     <use style="fill:#a0da39;stroke:#a0da39;" x="372.336234" xlink:href="#C0_0_92ce6c73a5" y="57.409404"/>
    </g>
    <g clip-path="url(#p5a2bf7ec2e)">
     <use style="fill:#a8db34;stroke:#a8db34;" x="372.388134" xlink:href="#C0_0_92ce6c73a5" y="56.905303"/>
    </g>
    <g clip-path="url(#p5a2bf7ec2e)">
     <use style="fill:#addc30;stroke:#addc30;" x="372.491932" xlink:href="#C0_0_92ce6c73a5" y="55.885241"/>
    </g>
    <g clip-path="url(#p5a2bf7ec2e)">
     <use style="fill:#b5de2b;stroke:#b5de2b;" x="372.608706" xlink:href="#C0_0_92ce6c73a5" y="54.724326"/>
    </g>
    <g clip-path="url(#p5a2bf7ec2e)">
     <use style="fill:#bade28;stroke:#bade28;" x="372.764404" xlink:href="#C0_0_92ce6c73a5" y="53.158649"/>
    </g>
    <g clip-path="url(#p5a2bf7ec2e)">
     <use style="fill:#c2df23;stroke:#c2df23;" x="372.829278" xlink:href="#C0_0_92ce6c73a5" y="52.49887"/>
    </g>
    <g clip-path="url(#p5a2bf7ec2e)">
     <use style="fill:#cae11f;stroke:#cae11f;" x="372.959026" xlink:href="#C0_0_92ce6c73a5" y="51.164485"/>
    </g>
    <g clip-path="url(#p5a2bf7ec2e)">
     <use style="fill:#d0e11c;stroke:#d0e11c;" x="373.0758" xlink:href="#C0_0_92ce6c73a5" y="49.950196"/>
    </g>
    <g clip-path="url(#p5a2bf7ec2e)">
     <use style="fill:#d8e219;stroke:#d8e219;" x="373.140674" xlink:href="#C0_0_92ce6c73a5" y="49.268177"/>
    </g>
    <g clip-path="url(#p5a2bf7ec2e)">
     <use style="fill:#dde318;stroke:#dde318;" x="373.205548" xlink:href="#C0_0_92ce6c73a5" y="48.578745"/>
    </g>
    <g clip-path="url(#p5a2bf7ec2e)">
     <use style="fill:#e5e419;stroke:#e5e419;" x="373.283397" xlink:href="#C0_0_92ce6c73a5" y="47.742531"/>
    </g>
    <g clip-path="url(#p5a2bf7ec2e)">
     <use style="fill:#ece51b;stroke:#ece51b;" x="373.335296" xlink:href="#C0_0_92ce6c73a5" y="47.179124"/>
    </g>
    <g clip-path="url(#p5a2bf7ec2e)">
     <use style="fill:#f1e51d;stroke:#f1e51d;" x="373.413145" xlink:href="#C0_0_92ce6c73a5" y="46.325118"/>
    </g>
    <g clip-path="url(#p5a2bf7ec2e)">
     <use style="fill:#f8e621;stroke:#f8e621;" x="373.47802" xlink:href="#C0_0_92ce6c73a5" y="45.606033"/>
    </g>
    <g clip-path="url(#p5a2bf7ec2e)">
     <use style="fill:#fde725;stroke:#fde725;" x="373.581818" xlink:href="#C0_0_92ce6c73a5" y="44.443636"/>
    </g>
   </g>
   <g id="matplotlib.axis_1">
    <g id="xtick_1">
     <g id="line2d_1">
      <defs>
       <path d="M 0 0
L 0 3.5
" id="m487555d8de" style="stroke:#000000;stroke-width:0.8;"/>
      </defs>
      <g>
       <use style="stroke:#000000;stroke-width:0.8;" x="69.218182" xlink:href="#m487555d8de" y="252"/>
      </g>
     </g>
     <g id="text_1">
      <!-- 0.0 -->
      <defs>
       <path d="M 31.78125 66.40625
Q 24.171875 66.40625 20.328125 58.90625
Q 16.5 51.421875 16.5 36.375
Q 16.5 21.390625 20.328125 13.890625
Q 24.171875 6.390625 31.78125 6.390625
Q 39.453125 6.390625 43.28125 13.890625
Q 47.125 21.390625 47.125 36.375
Q 47.125 51.421875 43.28125 58.90625
Q 39.453125 66.40625 31.78125 66.40625
z
M 31.78125 74.21875
Q 44.046875 74.21875 50.515625 64.515625
Q 56.984375 54.828125 56.984375 36.375
Q 56.984375 17.96875 50.515625 8.265625
Q 44.046875 -1.421875 31.78125 -1.421875
Q 19.53125 -1.421875 13.0625 8.265625
Q 6.59375 17.96875 6.59375 36.375
Q 6.59375 54.828125 13.0625 64.515625
Q 19.53125 74.21875 31.78125 74.21875
z
" id="DejaVuSans-48"/>
       <path d="M 10.6875 12.40625
L 21 12.40625
L 21 0
L 10.6875 0
z
" id="DejaVuSans-46"/>
      </defs>
      <g transform="translate(61.266619 266.598437)scale(0.1 -0.1)">
       <use xlink:href="#DejaVuSans-48"/>
       <use x="63.623047" xlink:href="#DejaVuSans-46"/>
       <use x="95.410156" xlink:href="#DejaVuSans-48"/>
      </g>
     </g>
    </g>
    <g id="xtick_2">
     <g id="line2d_2">
      <g>
       <use style="stroke:#000000;stroke-width:0.8;" x="131.357253" xlink:href="#m487555d8de" y="252"/>
      </g>
     </g>
     <g id="text_2">
      <!-- 0.2 -->
      <defs>
       <path d="M 19.1875 8.296875
L 53.609375 8.296875
L 53.609375 0
L 7.328125 0
L 7.328125 8.296875
Q 12.9375 14.109375 22.625 23.890625
Q 32.328125 33.6875 34.8125 36.53125
Q 39.546875 41.84375 41.421875 45.53125
Q 43.3125 49.21875 43.3125 52.78125
Q 43.3125 58.59375 39.234375 62.25
Q 35.15625 65.921875 28.609375 65.921875
Q 23.96875 65.921875 18.8125 64.3125
Q 13.671875 62.703125 7.8125 59.421875
L 7.8125 69.390625
Q 13.765625 71.78125 18.9375 73
Q 24.125 74.21875 28.421875 74.21875
Q 39.75 74.21875 46.484375 68.546875
Q 53.21875 62.890625 53.21875 53.421875
Q 53.21875 48.921875 51.53125 44.890625
Q 49.859375 40.875 45.40625 35.40625
Q 44.1875 33.984375 37.640625 27.21875
Q 31.109375 20.453125 19.1875 8.296875
z
" id="DejaVuSans-50"/>
      </defs>
      <g transform="translate(123.40569 266.598437)scale(0.1 -0.1)">
       <use xlink:href="#DejaVuSans-48"/>
       <use x="63.623047" xlink:href="#DejaVuSans-46"/>
       <use x="95.410156" xlink:href="#DejaVuSans-50"/>
      </g>
     </g>
    </g>
    <g id="xtick_3">
     <g id="line2d_3">
      <g>
       <use style="stroke:#000000;stroke-width:0.8;" x="193.496324" xlink:href="#m487555d8de" y="252"/>
      </g>
     </g>
     <g id="text_3">
      <!-- 0.4 -->
      <defs>
       <path d="M 37.796875 64.3125
L 12.890625 25.390625
L 37.796875 25.390625
z
M 35.203125 72.90625
L 47.609375 72.90625
L 47.609375 25.390625
L 58.015625 25.390625
L 58.015625 17.1875
L 47.609375 17.1875
L 47.609375 0
L 37.796875 0
L 37.796875 17.1875
L 4.890625 17.1875
L 4.890625 26.703125
z
" id="DejaVuSans-52"/>
      </defs>
      <g transform="translate(185.544761 266.598437)scale(0.1 -0.1)">
       <use xlink:href="#DejaVuSans-48"/>
       <use x="63.623047" xlink:href="#DejaVuSans-46"/>
       <use x="95.410156" xlink:href="#DejaVuSans-52"/>
      </g>
     </g>
    </g>
    <g id="xtick_4">
     <g id="line2d_4">
      <g>
       <use style="stroke:#000000;stroke-width:0.8;" x="255.635395" xlink:href="#m487555d8de" y="252"/>
      </g>
     </g>
     <g id="text_4">
      <!-- 0.6 -->
      <defs>
       <path d="M 33.015625 40.375
Q 26.375 40.375 22.484375 35.828125
Q 18.609375 31.296875 18.609375 23.390625
Q 18.609375 15.53125 22.484375 10.953125
Q 26.375 6.390625 33.015625 6.390625
Q 39.65625 6.390625 43.53125 10.953125
Q 47.40625 15.53125 47.40625 23.390625
Q 47.40625 31.296875 43.53125 35.828125
Q 39.65625 40.375 33.015625 40.375
z
M 52.59375 71.296875
L 52.59375 62.3125
Q 48.875 64.0625 45.09375 64.984375
Q 41.3125 65.921875 37.59375 65.921875
Q 27.828125 65.921875 22.671875 59.328125
Q 17.53125 52.734375 16.796875 39.40625
Q 19.671875 43.65625 24.015625 45.921875
Q 28.375 48.1875 33.59375 48.1875
Q 44.578125 48.1875 50.953125 41.515625
Q 57.328125 34.859375 57.328125 23.390625
Q 57.328125 12.15625 50.6875 5.359375
Q 44.046875 -1.421875 33.015625 -1.421875
Q 20.359375 -1.421875 13.671875 8.265625
Q 6.984375 17.96875 6.984375 36.375
Q 6.984375 53.65625 15.1875 63.9375
Q 23.390625 74.21875 37.203125 74.21875
Q 40.921875 74.21875 44.703125 73.484375
Q 48.484375 72.75 52.59375 71.296875
z
" id="DejaVuSans-54"/>
      </defs>
      <g transform="translate(247.683832 266.598437)scale(0.1 -0.1)">
       <use xlink:href="#DejaVuSans-48"/>
       <use x="63.623047" xlink:href="#DejaVuSans-46"/>
       <use x="95.410156" xlink:href="#DejaVuSans-54"/>
      </g>
     </g>
    </g>
    <g id="xtick_5">
     <g id="line2d_5">
      <g>
       <use style="stroke:#000000;stroke-width:0.8;" x="317.774466" xlink:href="#m487555d8de" y="252"/>
      </g>
     </g>
     <g id="text_5">
      <!-- 0.8 -->
      <defs>
       <path d="M 31.78125 34.625
Q 24.75 34.625 20.71875 30.859375
Q 16.703125 27.09375 16.703125 20.515625
Q 16.703125 13.921875 20.71875 10.15625
Q 24.75 6.390625 31.78125 6.390625
Q 38.8125 6.390625 42.859375 10.171875
Q 46.921875 13.96875 46.921875 20.515625
Q 46.921875 27.09375 42.890625 30.859375
Q 38.875 34.625 31.78125 34.625
z
M 21.921875 38.8125
Q 15.578125 40.375 12.03125 44.71875
Q 8.5 49.078125 8.5 55.328125
Q 8.5 64.0625 14.71875 69.140625
Q 20.953125 74.21875 31.78125 74.21875
Q 42.671875 74.21875 48.875 69.140625
Q 55.078125 64.0625 55.078125 55.328125
Q 55.078125 49.078125 51.53125 44.71875
Q 48 40.375 41.703125 38.8125
Q 48.828125 37.15625 52.796875 32.3125
Q 56.78125 27.484375 56.78125 20.515625
Q 56.78125 9.90625 50.3125 4.234375
Q 43.84375 -1.421875 31.78125 -1.421875
Q 19.734375 -1.421875 13.25 4.234375
Q 6.78125 9.90625 6.78125 20.515625
Q 6.78125 27.484375 10.78125 32.3125
Q 14.796875 37.15625 21.921875 38.8125
z
M 18.3125 54.390625
Q 18.3125 48.734375 21.84375 45.5625
Q 25.390625 42.390625 31.78125 42.390625
Q 38.140625 42.390625 41.71875 45.5625
Q 45.3125 48.734375 45.3125 54.390625
Q 45.3125 60.0625 41.71875 63.234375
Q 38.140625 66.40625 31.78125 66.40625
Q 25.390625 66.40625 21.84375 63.234375
Q 18.3125 60.0625 18.3125 54.390625
z
" id="DejaVuSans-56"/>
      </defs>
      <g transform="translate(309.822903 266.598437)scale(0.1 -0.1)">
       <use xlink:href="#DejaVuSans-48"/>
       <use x="63.623047" xlink:href="#DejaVuSans-46"/>
       <use x="95.410156" xlink:href="#DejaVuSans-56"/>
      </g>
     </g>
    </g>
    <g id="xtick_6">
     <g id="line2d_6">
      <g>
       <use style="stroke:#000000;stroke-width:0.8;" x="379.913537" xlink:href="#m487555d8de" y="252"/>
      </g>
     </g>
     <g id="text_6">
      <!-- 1.0 -->
      <defs>
       <path d="M 12.40625 8.296875
L 28.515625 8.296875
L 28.515625 63.921875
L 10.984375 60.40625
L 10.984375 69.390625
L 28.421875 72.90625
L 38.28125 72.90625
L 38.28125 8.296875
L 54.390625 8.296875
L 54.390625 0
L 12.40625 0
z
" id="DejaVuSans-49"/>
      </defs>
      <g transform="translate(371.961974 266.598437)scale(0.1 -0.1)">
       <use xlink:href="#DejaVuSans-49"/>
       <use x="63.623047" xlink:href="#DejaVuSans-46"/>
       <use x="95.410156" xlink:href="#DejaVuSans-48"/>
      </g>
     </g>
    </g>
    <g id="text_7">
     <!-- fraction vocab removed -->
     <defs>
      <path d="M 37.109375 75.984375
L 37.109375 68.5
L 28.515625 68.5
Q 23.6875 68.5 21.796875 66.546875
Q 19.921875 64.59375 19.921875 59.515625
L 19.921875 54.6875
L 34.71875 54.6875
L 34.71875 47.703125
L 19.921875 47.703125
L 19.921875 0
L 10.890625 0
L 10.890625 47.703125
L 2.296875 47.703125
L 2.296875 54.6875
L 10.890625 54.6875
L 10.890625 58.5
Q 10.890625 67.625 15.140625 71.796875
Q 19.390625 75.984375 28.609375 75.984375
z
" id="DejaVuSans-102"/>
      <path d="M 41.109375 46.296875
Q 39.59375 47.171875 37.8125 47.578125
Q 36.03125 48 33.890625 48
Q 26.265625 48 22.1875 43.046875
Q 18.109375 38.09375 18.109375 28.8125
L 18.109375 0
L 9.078125 0
L 9.078125 54.6875
L 18.109375 54.6875
L 18.109375 46.1875
Q 20.953125 51.171875 25.484375 53.578125
Q 30.03125 56 36.53125 56
Q 37.453125 56 38.578125 55.875
Q 39.703125 55.765625 41.0625 55.515625
z
" id="DejaVuSans-114"/>
      <path d="M 34.28125 27.484375
Q 23.390625 27.484375 19.1875 25
Q 14.984375 22.515625 14.984375 16.5
Q 14.984375 11.71875 18.140625 8.90625
Q 21.296875 6.109375 26.703125 6.109375
Q 34.1875 6.109375 38.703125 11.40625
Q 43.21875 16.703125 43.21875 25.484375
L 43.21875 27.484375
z
M 52.203125 31.203125
L 52.203125 0
L 43.21875 0
L 43.21875 8.296875
Q 40.140625 3.328125 35.546875 0.953125
Q 30.953125 -1.421875 24.3125 -1.421875
Q 15.921875 -1.421875 10.953125 3.296875
Q 6 8.015625 6 15.921875
Q 6 25.140625 12.171875 29.828125
Q 18.359375 34.515625 30.609375 34.515625
L 43.21875 34.515625
L 43.21875 35.40625
Q 43.21875 41.609375 39.140625 45
Q 35.0625 48.390625 27.6875 48.390625
Q 23 48.390625 18.546875 47.265625
Q 14.109375 46.140625 10.015625 43.890625
L 10.015625 52.203125
Q 14.9375 54.109375 19.578125 55.046875
Q 24.21875 56 28.609375 56
Q 40.484375 56 46.34375 49.84375
Q 52.203125 43.703125 52.203125 31.203125
z
" id="DejaVuSans-97"/>
      <path d="M 48.78125 52.59375
L 48.78125 44.1875
Q 44.96875 46.296875 41.140625 47.34375
Q 37.3125 48.390625 33.40625 48.390625
Q 24.65625 48.390625 19.8125 42.84375
Q 14.984375 37.3125 14.984375 27.296875
Q 14.984375 17.28125 19.8125 11.734375
Q 24.65625 6.203125 33.40625 6.203125
Q 37.3125 6.203125 41.140625 7.25
Q 44.96875 8.296875 48.78125 10.40625
L 48.78125 2.09375
Q 45.015625 0.34375 40.984375 -0.53125
Q 36.96875 -1.421875 32.421875 -1.421875
Q 20.0625 -1.421875 12.78125 6.34375
Q 5.515625 14.109375 5.515625 27.296875
Q 5.515625 40.671875 12.859375 48.328125
Q 20.21875 56 33.015625 56
Q 37.15625 56 41.109375 55.140625
Q 45.0625 54.296875 48.78125 52.59375
z
" id="DejaVuSans-99"/>
      <path d="M 18.3125 70.21875
L 18.3125 54.6875
L 36.8125 54.6875
L 36.8125 47.703125
L 18.3125 47.703125
L 18.3125 18.015625
Q 18.3125 11.328125 20.140625 9.421875
Q 21.96875 7.515625 27.59375 7.515625
L 36.8125 7.515625
L 36.8125 0
L 27.59375 0
Q 17.1875 0 13.234375 3.875
Q 9.28125 7.765625 9.28125 18.015625
L 9.28125 47.703125
L 2.6875 47.703125
L 2.6875 54.6875
L 9.28125 54.6875
L 9.28125 70.21875
z
" id="DejaVuSans-116"/>
      <path d="M 9.421875 54.6875
L 18.40625 54.6875
L 18.40625 0
L 9.421875 0
z
M 9.421875 75.984375
L 18.40625 75.984375
L 18.40625 64.59375
L 9.421875 64.59375
z
" id="DejaVuSans-105"/>
      <path d="M 30.609375 48.390625
Q 23.390625 48.390625 19.1875 42.75
Q 14.984375 37.109375 14.984375 27.296875
Q 14.984375 17.484375 19.15625 11.84375
Q 23.34375 6.203125 30.609375 6.203125
Q 37.796875 6.203125 41.984375 11.859375
Q 46.1875 17.53125 46.1875 27.296875
Q 46.1875 37.015625 41.984375 42.703125
Q 37.796875 48.390625 30.609375 48.390625
z
M 30.609375 56
Q 42.328125 56 49.015625 48.375
Q 55.71875 40.765625 55.71875 27.296875
Q 55.71875 13.875 49.015625 6.21875
Q 42.328125 -1.421875 30.609375 -1.421875
Q 18.84375 -1.421875 12.171875 6.21875
Q 5.515625 13.875 5.515625 27.296875
Q 5.515625 40.765625 12.171875 48.375
Q 18.84375 56 30.609375 56
z
" id="DejaVuSans-111"/>
      <path d="M 54.890625 33.015625
L 54.890625 0
L 45.90625 0
L 45.90625 32.71875
Q 45.90625 40.484375 42.875 44.328125
Q 39.84375 48.1875 33.796875 48.1875
Q 26.515625 48.1875 22.3125 43.546875
Q 18.109375 38.921875 18.109375 30.90625
L 18.109375 0
L 9.078125 0
L 9.078125 54.6875
L 18.109375 54.6875
L 18.109375 46.1875
Q 21.34375 51.125 25.703125 53.5625
Q 30.078125 56 35.796875 56
Q 45.21875 56 50.046875 50.171875
Q 54.890625 44.34375 54.890625 33.015625
z
" id="DejaVuSans-110"/>
      <path id="DejaVuSans-32"/>
      <path d="M 2.984375 54.6875
L 12.5 54.6875
L 29.59375 8.796875
L 46.6875 54.6875
L 56.203125 54.6875
L 35.6875 0
L 23.484375 0
z
" id="DejaVuSans-118"/>
      <path d="M 48.6875 27.296875
Q 48.6875 37.203125 44.609375 42.84375
Q 40.53125 48.484375 33.40625 48.484375
Q 26.265625 48.484375 22.1875 42.84375
Q 18.109375 37.203125 18.109375 27.296875
Q 18.109375 17.390625 22.1875 11.75
Q 26.265625 6.109375 33.40625 6.109375
Q 40.53125 6.109375 44.609375 11.75
Q 48.6875 17.390625 48.6875 27.296875
z
M 18.109375 46.390625
Q 20.953125 51.265625 25.265625 53.625
Q 29.59375 56 35.59375 56
Q 45.5625 56 51.78125 48.09375
Q 58.015625 40.1875 58.015625 27.296875
Q 58.015625 14.40625 51.78125 6.484375
Q 45.5625 -1.421875 35.59375 -1.421875
Q 29.59375 -1.421875 25.265625 0.953125
Q 20.953125 3.328125 18.109375 8.203125
L 18.109375 0
L 9.078125 0
L 9.078125 75.984375
L 18.109375 75.984375
z
" id="DejaVuSans-98"/>
      <path d="M 56.203125 29.59375
L 56.203125 25.203125
L 14.890625 25.203125
Q 15.484375 15.921875 20.484375 11.0625
Q 25.484375 6.203125 34.421875 6.203125
Q 39.59375 6.203125 44.453125 7.46875
Q 49.3125 8.734375 54.109375 11.28125
L 54.109375 2.78125
Q 49.265625 0.734375 44.1875 -0.34375
Q 39.109375 -1.421875 33.890625 -1.421875
Q 20.796875 -1.421875 13.15625 6.1875
Q 5.515625 13.8125 5.515625 26.8125
Q 5.515625 40.234375 12.765625 48.109375
Q 20.015625 56 32.328125 56
Q 43.359375 56 49.78125 48.890625
Q 56.203125 41.796875 56.203125 29.59375
z
M 47.21875 32.234375
Q 47.125 39.59375 43.09375 43.984375
Q 39.0625 48.390625 32.421875 48.390625
Q 24.90625 48.390625 20.390625 44.140625
Q 15.875 39.890625 15.1875 32.171875
z
" id="DejaVuSans-101"/>
      <path d="M 52 44.1875
Q 55.375 50.25 60.0625 53.125
Q 64.75 56 71.09375 56
Q 79.640625 56 84.28125 50.015625
Q 88.921875 44.046875 88.921875 33.015625
L 88.921875 0
L 79.890625 0
L 79.890625 32.71875
Q 79.890625 40.578125 77.09375 44.375
Q 74.3125 48.1875 68.609375 48.1875
Q 61.625 48.1875 57.5625 43.546875
Q 53.515625 38.921875 53.515625 30.90625
L 53.515625 0
L 44.484375 0
L 44.484375 32.71875
Q 44.484375 40.625 41.703125 44.40625
Q 38.921875 48.1875 33.109375 48.1875
Q 26.21875 48.1875 22.15625 43.53125
Q 18.109375 38.875 18.109375 30.90625
L 18.109375 0
L 9.078125 0
L 9.078125 54.6875
L 18.109375 54.6875
L 18.109375 46.1875
Q 21.1875 51.21875 25.484375 53.609375
Q 29.78125 56 35.6875 56
Q 41.65625 56 45.828125 52.96875
Q 50 49.953125 52 44.1875
z
" id="DejaVuSans-109"/>
      <path d="M 45.40625 46.390625
L 45.40625 75.984375
L 54.390625 75.984375
L 54.390625 0
L 45.40625 0
L 45.40625 8.203125
Q 42.578125 3.328125 38.25 0.953125
Q 33.9375 -1.421875 27.875 -1.421875
Q 17.96875 -1.421875 11.734375 6.484375
Q 5.515625 14.40625 5.515625 27.296875
Q 5.515625 40.1875 11.734375 48.09375
Q 17.96875 56 27.875 56
Q 33.9375 56 38.25 53.625
Q 42.578125 51.265625 45.40625 46.390625
z
M 14.796875 27.296875
Q 14.796875 17.390625 18.875 11.75
Q 22.953125 6.109375 30.078125 6.109375
Q 37.203125 6.109375 41.296875 11.75
Q 45.40625 17.390625 45.40625 27.296875
Q 45.40625 37.203125 41.296875 42.84375
Q 37.203125 48.484375 30.078125 48.484375
Q 22.953125 48.484375 18.875 42.84375
Q 14.796875 37.203125 14.796875 27.296875
z
" id="DejaVuSans-100"/>
     </defs>
     <g transform="translate(161.85 280.276563)scale(0.1 -0.1)">
      <use xlink:href="#DejaVuSans-102"/>
      <use x="35.205078" xlink:href="#DejaVuSans-114"/>
      <use x="76.318359" xlink:href="#DejaVuSans-97"/>
      <use x="137.597656" xlink:href="#DejaVuSans-99"/>
      <use x="192.578125" xlink:href="#DejaVuSans-116"/>
      <use x="231.787109" xlink:href="#DejaVuSans-105"/>
      <use x="259.570312" xlink:href="#DejaVuSans-111"/>
      <use x="320.751953" xlink:href="#DejaVuSans-110"/>
      <use x="384.130859" xlink:href="#DejaVuSans-32"/>
      <use x="415.917969" xlink:href="#DejaVuSans-118"/>
      <use x="475.097656" xlink:href="#DejaVuSans-111"/>
      <use x="536.279297" xlink:href="#DejaVuSans-99"/>
      <use x="591.259766" xlink:href="#DejaVuSans-97"/>
      <use x="652.539062" xlink:href="#DejaVuSans-98"/>
      <use x="716.015625" xlink:href="#DejaVuSans-32"/>
      <use x="747.802734" xlink:href="#DejaVuSans-114"/>
      <use x="786.666016" xlink:href="#DejaVuSans-101"/>
      <use x="848.189453" xlink:href="#DejaVuSans-109"/>
      <use x="945.601562" xlink:href="#DejaVuSans-111"/>
      <use x="1006.783203" xlink:href="#DejaVuSans-118"/>
      <use x="1065.962891" xlink:href="#DejaVuSans-101"/>
      <use x="1127.486328" xlink:href="#DejaVuSans-100"/>
     </g>
    </g>
   </g>
   <g id="matplotlib.axis_2">
    <g id="ytick_1">
     <g id="line2d_7">
      <defs>
       <path d="M 0 0
L -3.5 0
" id="mc56b6d7d98" style="stroke:#000000;stroke-width:0.8;"/>
      </defs>
      <g>
       <use style="stroke:#000000;stroke-width:0.8;" x="54" xlink:href="#mc56b6d7d98" y="242.116364"/>
      </g>
     </g>
     <g id="text_8">
      <!-- 0.00 -->
      <g transform="translate(24.734375 245.915582)scale(0.1 -0.1)">
       <use xlink:href="#DejaVuSans-48"/>
       <use x="63.623047" xlink:href="#DejaVuSans-46"/>
       <use x="95.410156" xlink:href="#DejaVuSans-48"/>
       <use x="159.033203" xlink:href="#DejaVuSans-48"/>
      </g>
     </g>
    </g>
    <g id="ytick_2">
     <g id="line2d_8">
      <g>
       <use style="stroke:#000000;stroke-width:0.8;" x="54" xlink:href="#mc56b6d7d98" y="216.1018"/>
      </g>
     </g>
     <g id="text_9">
      <!-- 0.05 -->
      <defs>
       <path d="M 10.796875 72.90625
L 49.515625 72.90625
L 49.515625 64.59375
L 19.828125 64.59375
L 19.828125 46.734375
Q 21.96875 47.46875 24.109375 47.828125
Q 26.265625 48.1875 28.421875 48.1875
Q 40.625 48.1875 47.75 41.5
Q 54.890625 34.8125 54.890625 23.390625
Q 54.890625 11.625 47.5625 5.09375
Q 40.234375 -1.421875 26.90625 -1.421875
Q 22.3125 -1.421875 17.546875 -0.640625
Q 12.796875 0.140625 7.71875 1.703125
L 7.71875 11.625
Q 12.109375 9.234375 16.796875 8.0625
Q 21.484375 6.890625 26.703125 6.890625
Q 35.15625 6.890625 40.078125 11.328125
Q 45.015625 15.765625 45.015625 23.390625
Q 45.015625 31 40.078125 35.4375
Q 35.15625 39.890625 26.703125 39.890625
Q 22.75 39.890625 18.8125 39.015625
Q 14.890625 38.140625 10.796875 36.28125
z
" id="DejaVuSans-53"/>
      </defs>
      <g transform="translate(24.734375 219.901019)scale(0.1 -0.1)">
       <use xlink:href="#DejaVuSans-48"/>
       <use x="63.623047" xlink:href="#DejaVuSans-46"/>
       <use x="95.410156" xlink:href="#DejaVuSans-48"/>
       <use x="159.033203" xlink:href="#DejaVuSans-53"/>
      </g>
     </g>
    </g>
    <g id="ytick_3">
     <g id="line2d_9">
      <g>
       <use style="stroke:#000000;stroke-width:0.8;" x="54" xlink:href="#mc56b6d7d98" y="190.087237"/>
      </g>
     </g>
     <g id="text_10">
      <!-- 0.10 -->
      <g transform="translate(24.734375 193.886455)scale(0.1 -0.1)">
       <use xlink:href="#DejaVuSans-48"/>
       <use x="63.623047" xlink:href="#DejaVuSans-46"/>
       <use x="95.410156" xlink:href="#DejaVuSans-49"/>
       <use x="159.033203" xlink:href="#DejaVuSans-48"/>
      </g>
     </g>
    </g>
    <g id="ytick_4">
     <g id="line2d_10">
      <g>
       <use style="stroke:#000000;stroke-width:0.8;" x="54" xlink:href="#mc56b6d7d98" y="164.072673"/>
      </g>
     </g>
     <g id="text_11">
      <!-- 0.15 -->
      <g transform="translate(24.734375 167.871892)scale(0.1 -0.1)">
       <use xlink:href="#DejaVuSans-48"/>
       <use x="63.623047" xlink:href="#DejaVuSans-46"/>
       <use x="95.410156" xlink:href="#DejaVuSans-49"/>
       <use x="159.033203" xlink:href="#DejaVuSans-53"/>
      </g>
     </g>
    </g>
    <g id="ytick_5">
     <g id="line2d_11">
      <g>
       <use style="stroke:#000000;stroke-width:0.8;" x="54" xlink:href="#mc56b6d7d98" y="138.058109"/>
      </g>
     </g>
     <g id="text_12">
      <!-- 0.20 -->
      <g transform="translate(24.734375 141.857328)scale(0.1 -0.1)">
       <use xlink:href="#DejaVuSans-48"/>
       <use x="63.623047" xlink:href="#DejaVuSans-46"/>
       <use x="95.410156" xlink:href="#DejaVuSans-50"/>
       <use x="159.033203" xlink:href="#DejaVuSans-48"/>
      </g>
     </g>
    </g>
    <g id="ytick_6">
     <g id="line2d_12">
      <g>
       <use style="stroke:#000000;stroke-width:0.8;" x="54" xlink:href="#mc56b6d7d98" y="112.043546"/>
      </g>
     </g>
     <g id="text_13">
      <!-- 0.25 -->
      <g transform="translate(24.734375 115.842765)scale(0.1 -0.1)">
       <use xlink:href="#DejaVuSans-48"/>
       <use x="63.623047" xlink:href="#DejaVuSans-46"/>
       <use x="95.410156" xlink:href="#DejaVuSans-50"/>
       <use x="159.033203" xlink:href="#DejaVuSans-53"/>
      </g>
     </g>
    </g>
    <g id="ytick_7">
     <g id="line2d_13">
      <g>
       <use style="stroke:#000000;stroke-width:0.8;" x="54" xlink:href="#mc56b6d7d98" y="86.028982"/>
      </g>
     </g>
     <g id="text_14">
      <!-- 0.30 -->
      <defs>
       <path d="M 40.578125 39.3125
Q 47.65625 37.796875 51.625 33
Q 55.609375 28.21875 55.609375 21.1875
Q 55.609375 10.40625 48.1875 4.484375
Q 40.765625 -1.421875 27.09375 -1.421875
Q 22.515625 -1.421875 17.65625 -0.515625
Q 12.796875 0.390625 7.625 2.203125
L 7.625 11.71875
Q 11.71875 9.328125 16.59375 8.109375
Q 21.484375 6.890625 26.8125 6.890625
Q 36.078125 6.890625 40.9375 10.546875
Q 45.796875 14.203125 45.796875 21.1875
Q 45.796875 27.640625 41.28125 31.265625
Q 36.765625 34.90625 28.71875 34.90625
L 20.21875 34.90625
L 20.21875 43.015625
L 29.109375 43.015625
Q 36.375 43.015625 40.234375 45.921875
Q 44.09375 48.828125 44.09375 54.296875
Q 44.09375 59.90625 40.109375 62.90625
Q 36.140625 65.921875 28.71875 65.921875
Q 24.65625 65.921875 20.015625 65.03125
Q 15.375 64.15625 9.8125 62.3125
L 9.8125 71.09375
Q 15.4375 72.65625 20.34375 73.4375
Q 25.25 74.21875 29.59375 74.21875
Q 40.828125 74.21875 47.359375 69.109375
Q 53.90625 64.015625 53.90625 55.328125
Q 53.90625 49.265625 50.4375 45.09375
Q 46.96875 40.921875 40.578125 39.3125
z
" id="DejaVuSans-51"/>
      </defs>
      <g transform="translate(24.734375 89.828201)scale(0.1 -0.1)">
       <use xlink:href="#DejaVuSans-48"/>
       <use x="63.623047" xlink:href="#DejaVuSans-46"/>
       <use x="95.410156" xlink:href="#DejaVuSans-51"/>
       <use x="159.033203" xlink:href="#DejaVuSans-48"/>
      </g>
     </g>
    </g>
    <g id="ytick_8">
     <g id="line2d_14">
      <g>
       <use style="stroke:#000000;stroke-width:0.8;" x="54" xlink:href="#mc56b6d7d98" y="60.014419"/>
      </g>
     </g>
     <g id="text_15">
      <!-- 0.35 -->
      <g transform="translate(24.734375 63.813637)scale(0.1 -0.1)">
       <use xlink:href="#DejaVuSans-48"/>
       <use x="63.623047" xlink:href="#DejaVuSans-46"/>
       <use x="95.410156" xlink:href="#DejaVuSans-51"/>
       <use x="159.033203" xlink:href="#DejaVuSans-53"/>
      </g>
     </g>
    </g>
    <g id="text_16">
     <!-- fraction words removed -->
     <defs>
      <path d="M 4.203125 54.6875
L 13.1875 54.6875
L 24.421875 12.015625
L 35.59375 54.6875
L 46.1875 54.6875
L 57.421875 12.015625
L 68.609375 54.6875
L 77.59375 54.6875
L 63.28125 0
L 52.6875 0
L 40.921875 44.828125
L 29.109375 0
L 18.5 0
z
" id="DejaVuSans-119"/>
      <path d="M 44.28125 53.078125
L 44.28125 44.578125
Q 40.484375 46.53125 36.375 47.5
Q 32.28125 48.484375 27.875 48.484375
Q 21.1875 48.484375 17.84375 46.4375
Q 14.5 44.390625 14.5 40.28125
Q 14.5 37.15625 16.890625 35.375
Q 19.28125 33.59375 26.515625 31.984375
L 29.59375 31.296875
Q 39.15625 29.25 43.1875 25.515625
Q 47.21875 21.78125 47.21875 15.09375
Q 47.21875 7.46875 41.1875 3.015625
Q 35.15625 -1.421875 24.609375 -1.421875
Q 20.21875 -1.421875 15.453125 -0.5625
Q 10.6875 0.296875 5.421875 2
L 5.421875 11.28125
Q 10.40625 8.6875 15.234375 7.390625
Q 20.0625 6.109375 24.8125 6.109375
Q 31.15625 6.109375 34.5625 8.28125
Q 37.984375 10.453125 37.984375 14.40625
Q 37.984375 18.0625 35.515625 20.015625
Q 33.0625 21.96875 24.703125 23.78125
L 21.578125 24.515625
Q 13.234375 26.265625 9.515625 29.90625
Q 5.8125 33.546875 5.8125 39.890625
Q 5.8125 47.609375 11.28125 51.796875
Q 16.75 56 26.8125 56
Q 31.78125 56 36.171875 55.265625
Q 40.578125 54.546875 44.28125 53.078125
z
" id="DejaVuSans-115"/>
     </defs>
     <g transform="translate(18.654687 202.719063)rotate(-90)scale(0.1 -0.1)">
      <use xlink:href="#DejaVuSans-102"/>
      <use x="35.205078" xlink:href="#DejaVuSans-114"/>
      <use x="76.318359" xlink:href="#DejaVuSans-97"/>
      <use x="137.597656" xlink:href="#DejaVuSans-99"/>
      <use x="192.578125" xlink:href="#DejaVuSans-116"/>
      <use x="231.787109" xlink:href="#DejaVuSans-105"/>
      <use x="259.570312" xlink:href="#DejaVuSans-111"/>
      <use x="320.751953" xlink:href="#DejaVuSans-110"/>
      <use x="384.130859" xlink:href="#DejaVuSans-32"/>
      <use x="415.917969" xlink:href="#DejaVuSans-119"/>
      <use x="497.705078" xlink:href="#DejaVuSans-111"/>
      <use x="558.886719" xlink:href="#DejaVuSans-114"/>
      <use x="598.25" xlink:href="#DejaVuSans-100"/>
      <use x="661.726562" xlink:href="#DejaVuSans-115"/>
      <use x="713.826172" xlink:href="#DejaVuSans-32"/>
      <use x="745.613281" xlink:href="#DejaVuSans-114"/>
      <use x="784.476562" xlink:href="#DejaVuSans-101"/>
      <use x="846" xlink:href="#DejaVuSans-109"/>
      <use x="943.412109" xlink:href="#DejaVuSans-111"/>
      <use x="1004.59375" xlink:href="#DejaVuSans-118"/>
      <use x="1063.773438" xlink:href="#DejaVuSans-101"/>
      <use x="1125.296875" xlink:href="#DejaVuSans-100"/>
     </g>
    </g>
   </g>
   <g id="patch_3">
    <path d="M 54 252
L 54 34.56
" style="fill:none;stroke:#000000;stroke-linecap:square;stroke-linejoin:miter;stroke-width:0.8;"/>
   </g>
   <g id="patch_4">
    <path d="M 388.8 252
L 388.8 34.56
" style="fill:none;stroke:#000000;stroke-linecap:square;stroke-linejoin:miter;stroke-width:0.8;"/>
   </g>
   <g id="patch_5">
    <path d="M 54 252
L 388.8 252
" style="fill:none;stroke:#000000;stroke-linecap:square;stroke-linejoin:miter;stroke-width:0.8;"/>
   </g>
   <g id="patch_6">
    <path d="M 54 34.56
L 388.8 34.56
" style="fill:none;stroke:#000000;stroke-linecap:square;stroke-linejoin:miter;stroke-width:0.8;"/>
   </g>
   <g id="legend_1">
    <g id="patch_7">
     <path d="M 61 189.619375
L 146.65 189.619375
Q 148.65 189.619375 148.65 187.619375
L 148.65 41.56
Q 148.65 39.56 146.65 39.56
L 61 39.56
Q 59 39.56 59 41.56
L 59 187.619375
Q 59 189.619375 61 189.619375
z
" style="fill:#ffffff;opacity:0.8;stroke:#cccccc;stroke-linejoin:miter;"/>
    </g>
    <g id="text_17">
     <!-- min_word_count -->
     <defs>
      <path d="M 50.984375 -16.609375
L 50.984375 -23.578125
L -0.984375 -23.578125
L -0.984375 -16.609375
z
" id="DejaVuSans-95"/>
      <path d="M 8.5 21.578125
L 8.5 54.6875
L 17.484375 54.6875
L 17.484375 21.921875
Q 17.484375 14.15625 20.5 10.265625
Q 23.53125 6.390625 29.59375 6.390625
Q 36.859375 6.390625 41.078125 11.03125
Q 45.3125 15.671875 45.3125 23.6875
L 45.3125 54.6875
L 54.296875 54.6875
L 54.296875 0
L 45.3125 0
L 45.3125 8.40625
Q 42.046875 3.421875 37.71875 1
Q 33.40625 -1.421875 27.6875 -1.421875
Q 18.265625 -1.421875 13.375 4.4375
Q 8.5 10.296875 8.5 21.578125
z
M 31.109375 56
z
" id="DejaVuSans-117"/>
     </defs>
     <g transform="translate(63 51.158437)scale(0.1 -0.1)">
      <use xlink:href="#DejaVuSans-109"/>
      <use x="97.412109" xlink:href="#DejaVuSans-105"/>
      <use x="125.195312" xlink:href="#DejaVuSans-110"/>
      <use x="188.574219" xlink:href="#DejaVuSans-95"/>
      <use x="238.574219" xlink:href="#DejaVuSans-119"/>
      <use x="320.361328" xlink:href="#DejaVuSans-111"/>
      <use x="381.542969" xlink:href="#DejaVuSans-114"/>
      <use x="420.90625" xlink:href="#DejaVuSans-100"/>
      <use x="484.382812" xlink:href="#DejaVuSans-95"/>
      <use x="534.382812" xlink:href="#DejaVuSans-99"/>
      <use x="589.363281" xlink:href="#DejaVuSans-111"/>
      <use x="650.544922" xlink:href="#DejaVuSans-117"/>
      <use x="713.923828" xlink:href="#DejaVuSans-110"/>
      <use x="777.302734" xlink:href="#DejaVuSans-116"/>
     </g>
    </g>
    <g id="line2d_15"/>
    <g id="line2d_16">
     <defs>
      <path d="M 0 3
C 0.795609 3 1.55874 2.683901 2.12132 2.12132
C 2.683901 1.55874 3 0.795609 3 0
C 3 -0.795609 2.683901 -1.55874 2.12132 -2.12132
C 1.55874 -2.683901 0.795609 -3 0 -3
C -0.795609 -3 -1.55874 -2.683901 -2.12132 -2.12132
C -2.683901 -1.55874 -3 -0.795609 -3 0
C -3 0.795609 -2.683901 1.55874 -2.12132 2.12132
C -1.55874 2.683901 -0.795609 3 0 3
z
" id="m8069025d7c" style="stroke:#482173;"/>
     </defs>
     <g>
      <use style="fill:#482173;stroke:#482173;" x="93.425" xlink:href="#m8069025d7c" y="62.614688"/>
     </g>
    </g>
    <g id="text_18">
     <!-- $\mathdefault{10}$ -->
     <g transform="translate(111.425 66.114688)scale(0.1 -0.1)">
      <use transform="translate(0 0.78125)" xlink:href="#DejaVuSans-49"/>
      <use transform="translate(63.623047 0.78125)" xlink:href="#DejaVuSans-48"/>
     </g>
    </g>
    <g id="line2d_17"/>
    <g id="line2d_18">
     <defs>
      <path d="M 0 3
C 0.795609 3 1.55874 2.683901 2.12132 2.12132
C 2.683901 1.55874 3 0.795609 3 0
C 3 -0.795609 2.683901 -1.55874 2.12132 -2.12132
C 1.55874 -2.683901 0.795609 -3 0 -3
C -0.795609 -3 -1.55874 -2.683901 -2.12132 -2.12132
C -2.683901 -1.55874 -3 -0.795609 -3 0
C -3 0.795609 -2.683901 1.55874 -2.12132 2.12132
C -1.55874 2.683901 -0.795609 3 0 3
z
" id="m6ef33096dd" style="stroke:#424186;"/>
     </defs>
     <g>
      <use style="fill:#424186;stroke:#424186;" x="93.425" xlink:href="#m6ef33096dd" y="77.292813"/>
     </g>
    </g>
    <g id="text_19">
     <!-- $\mathdefault{20}$ -->
     <g transform="translate(111.425 80.792813)scale(0.1 -0.1)">
      <use transform="translate(0 0.78125)" xlink:href="#DejaVuSans-50"/>
      <use transform="translate(63.623047 0.78125)" xlink:href="#DejaVuSans-48"/>
     </g>
    </g>
    <g id="line2d_19"/>
    <g id="line2d_20">
     <defs>
      <path d="M 0 3
C 0.795609 3 1.55874 2.683901 2.12132 2.12132
C 2.683901 1.55874 3 0.795609 3 0
C 3 -0.795609 2.683901 -1.55874 2.12132 -2.12132
C 1.55874 -2.683901 0.795609 -3 0 -3
C -0.795609 -3 -1.55874 -2.683901 -2.12132 -2.12132
C -2.683901 -1.55874 -3 -0.795609 -3 0
C -3 0.795609 -2.683901 1.55874 -2.12132 2.12132
C -1.55874 2.683901 -0.795609 3 0 3
z
" id="m31061e2c6e" style="stroke:#355e8d;"/>
     </defs>
     <g>
      <use style="fill:#355e8d;stroke:#355e8d;" x="93.425" xlink:href="#m31061e2c6e" y="91.970937"/>
     </g>
    </g>
    <g id="text_20">
     <!-- $\mathdefault{30}$ -->
     <g transform="translate(111.425 95.470937)scale(0.1 -0.1)">
      <use transform="translate(0 0.78125)" xlink:href="#DejaVuSans-51"/>
      <use transform="translate(63.623047 0.78125)" xlink:href="#DejaVuSans-48"/>
     </g>
    </g>
    <g id="line2d_21"/>
    <g id="line2d_22">
     <defs>
      <path d="M 0 3
C 0.795609 3 1.55874 2.683901 2.12132 2.12132
C 2.683901 1.55874 3 0.795609 3 0
C 3 -0.795609 2.683901 -1.55874 2.12132 -2.12132
C 1.55874 -2.683901 0.795609 -3 0 -3
C -0.795609 -3 -1.55874 -2.683901 -2.12132 -2.12132
C -2.683901 -1.55874 -3 -0.795609 -3 0
C -3 0.795609 -2.683901 1.55874 -2.12132 2.12132
C -1.55874 2.683901 -0.795609 3 0 3
z
" id="m7e72c32747" style="stroke:#2a778e;"/>
     </defs>
     <g>
      <use style="fill:#2a778e;stroke:#2a778e;" x="93.425" xlink:href="#m7e72c32747" y="106.649063"/>
     </g>
    </g>
    <g id="text_21">
     <!-- $\mathdefault{40}$ -->
     <g transform="translate(111.425 110.149063)scale(0.1 -0.1)">
      <use transform="translate(0 0.78125)" xlink:href="#DejaVuSans-52"/>
      <use transform="translate(63.623047 0.78125)" xlink:href="#DejaVuSans-48"/>
     </g>
    </g>
    <g id="line2d_23"/>
    <g id="line2d_24">
     <defs>
      <path d="M 0 3
C 0.795609 3 1.55874 2.683901 2.12132 2.12132
C 2.683901 1.55874 3 0.795609 3 0
C 3 -0.795609 2.683901 -1.55874 2.12132 -2.12132
C 1.55874 -2.683901 0.795609 -3 0 -3
C -0.795609 -3 -1.55874 -2.683901 -2.12132 -2.12132
C -2.683901 -1.55874 -3 -0.795609 -3 0
C -3 0.795609 -2.683901 1.55874 -2.12132 2.12132
C -1.55874 2.683901 -0.795609 3 0 3
z
" id="m5d4c6193d7" style="stroke:#21918c;"/>
     </defs>
     <g>
      <use style="fill:#21918c;stroke:#21918c;" x="93.425" xlink:href="#m5d4c6193d7" y="121.327188"/>
     </g>
    </g>
    <g id="text_22">
     <!-- $\mathdefault{50}$ -->
     <g transform="translate(111.425 124.827188)scale(0.1 -0.1)">
      <use transform="translate(0 0.78125)" xlink:href="#DejaVuSans-53"/>
      <use transform="translate(63.623047 0.78125)" xlink:href="#DejaVuSans-48"/>
     </g>
    </g>
    <g id="line2d_25"/>
    <g id="line2d_26">
     <defs>
      <path d="M 0 3
C 0.795609 3 1.55874 2.683901 2.12132 2.12132
C 2.683901 1.55874 3 0.795609 3 0
C 3 -0.795609 2.683901 -1.55874 2.12132 -2.12132
C 1.55874 -2.683901 0.795609 -3 0 -3
C -0.795609 -3 -1.55874 -2.683901 -2.12132 -2.12132
C -2.683901 -1.55874 -3 -0.795609 -3 0
C -3 0.795609 -2.683901 1.55874 -2.12132 2.12132
C -1.55874 2.683901 -0.795609 3 0 3
z
" id="m076cbb019c" style="stroke:#23a983;"/>
     </defs>
     <g>
      <use style="fill:#23a983;stroke:#23a983;" x="93.425" xlink:href="#m076cbb019c" y="136.005313"/>
     </g>
    </g>
    <g id="text_23">
     <!-- $\mathdefault{60}$ -->
     <g transform="translate(111.425 139.505313)scale(0.1 -0.1)">
      <use transform="translate(0 0.78125)" xlink:href="#DejaVuSans-54"/>
      <use transform="translate(63.623047 0.78125)" xlink:href="#DejaVuSans-48"/>
     </g>
    </g>
    <g id="line2d_27"/>
    <g id="line2d_28">
     <defs>
      <path d="M 0 3
C 0.795609 3 1.55874 2.683901 2.12132 2.12132
C 2.683901 1.55874 3 0.795609 3 0
C 3 -0.795609 2.683901 -1.55874 2.12132 -2.12132
C 1.55874 -2.683901 0.795609 -3 0 -3
C -0.795609 -3 -1.55874 -2.683901 -2.12132 -2.12132
C -2.683901 -1.55874 -3 -0.795609 -3 0
C -3 0.795609 -2.683901 1.55874 -2.12132 2.12132
C -1.55874 2.683901 -0.795609 3 0 3
z
" id="m58a634c760" style="stroke:#46c06f;"/>
     </defs>
     <g>
      <use style="fill:#46c06f;stroke:#46c06f;" x="93.425" xlink:href="#m58a634c760" y="150.683437"/>
     </g>
    </g>
    <g id="text_24">
     <!-- $\mathdefault{70}$ -->
     <defs>
      <path d="M 8.203125 72.90625
L 55.078125 72.90625
L 55.078125 68.703125
L 28.609375 0
L 18.3125 0
L 43.21875 64.59375
L 8.203125 64.59375
z
" id="DejaVuSans-55"/>
     </defs>
     <g transform="translate(111.425 154.183437)scale(0.1 -0.1)">
      <use transform="translate(0 0.78125)" xlink:href="#DejaVuSans-55"/>
      <use transform="translate(63.623047 0.78125)" xlink:href="#DejaVuSans-48"/>
     </g>
    </g>
    <g id="line2d_29"/>
    <g id="line2d_30">
     <defs>
      <path d="M 0 3
C 0.795609 3 1.55874 2.683901 2.12132 2.12132
C 2.683901 1.55874 3 0.795609 3 0
C 3 -0.795609 2.683901 -1.55874 2.12132 -2.12132
C 1.55874 -2.683901 0.795609 -3 0 -3
C -0.795609 -3 -1.55874 -2.683901 -2.12132 -2.12132
C -2.683901 -1.55874 -3 -0.795609 -3 0
C -3 0.795609 -2.683901 1.55874 -2.12132 2.12132
C -1.55874 2.683901 -0.795609 3 0 3
z
" id="mb3ee6a641f" style="stroke:#7fd34e;"/>
     </defs>
     <g>
      <use style="fill:#7fd34e;stroke:#7fd34e;" x="93.425" xlink:href="#mb3ee6a641f" y="165.361562"/>
     </g>
    </g>
    <g id="text_25">
     <!-- $\mathdefault{80}$ -->
     <g transform="translate(111.425 168.861562)scale(0.1 -0.1)">
      <use transform="translate(0 0.78125)" xlink:href="#DejaVuSans-56"/>
      <use transform="translate(63.623047 0.78125)" xlink:href="#DejaVuSans-48"/>
     </g>
    </g>
    <g id="line2d_31"/>
    <g id="line2d_32">
     <defs>
      <path d="M 0 3
C 0.795609 3 1.55874 2.683901 2.12132 2.12132
C 2.683901 1.55874 3 0.795609 3 0
C 3 -0.795609 2.683901 -1.55874 2.12132 -2.12132
C 1.55874 -2.683901 0.795609 -3 0 -3
C -0.795609 -3 -1.55874 -2.683901 -2.12132 -2.12132
C -2.683901 -1.55874 -3 -0.795609 -3 0
C -3 0.795609 -2.683901 1.55874 -2.12132 2.12132
C -1.55874 2.683901 -0.795609 3 0 3
z
" id="m9ec4732f28" style="stroke:#c2df23;"/>
     </defs>
     <g>
      <use style="fill:#c2df23;stroke:#c2df23;" x="93.425" xlink:href="#m9ec4732f28" y="180.039687"/>
     </g>
    </g>
    <g id="text_26">
     <!-- $\mathdefault{90}$ -->
     <defs>
      <path d="M 10.984375 1.515625
L 10.984375 10.5
Q 14.703125 8.734375 18.5 7.8125
Q 22.3125 6.890625 25.984375 6.890625
Q 35.75 6.890625 40.890625 13.453125
Q 46.046875 20.015625 46.78125 33.40625
Q 43.953125 29.203125 39.59375 26.953125
Q 35.25 24.703125 29.984375 24.703125
Q 19.046875 24.703125 12.671875 31.3125
Q 6.296875 37.9375 6.296875 49.421875
Q 6.296875 60.640625 12.9375 67.421875
Q 19.578125 74.21875 30.609375 74.21875
Q 43.265625 74.21875 49.921875 64.515625
Q 56.59375 54.828125 56.59375 36.375
Q 56.59375 19.140625 48.40625 8.859375
Q 40.234375 -1.421875 26.421875 -1.421875
Q 22.703125 -1.421875 18.890625 -0.6875
Q 15.09375 0.046875 10.984375 1.515625
z
M 30.609375 32.421875
Q 37.25 32.421875 41.125 36.953125
Q 45.015625 41.5 45.015625 49.421875
Q 45.015625 57.28125 41.125 61.84375
Q 37.25 66.40625 30.609375 66.40625
Q 23.96875 66.40625 20.09375 61.84375
Q 16.21875 57.28125 16.21875 49.421875
Q 16.21875 41.5 20.09375 36.953125
Q 23.96875 32.421875 30.609375 32.421875
z
" id="DejaVuSans-57"/>
     </defs>
     <g transform="translate(111.425 183.539687)scale(0.1 -0.1)">
      <use transform="translate(0 0.78125)" xlink:href="#DejaVuSans-57"/>
      <use transform="translate(63.623047 0.78125)" xlink:href="#DejaVuSans-48"/>
     </g>
    </g>
   </g>
   <g id="legend_2">
    <g id="patch_8">
     <path d="M 61 189.619375
L 146.65 189.619375
Q 148.65 189.619375 148.65 187.619375
L 148.65 41.56
Q 148.65 39.56 146.65 39.56
L 61 39.56
Q 59 39.56 59 41.56
L 59 187.619375
Q 59 189.619375 61 189.619375
z
" style="fill:#ffffff;opacity:0.8;stroke:#cccccc;stroke-linejoin:miter;"/>
    </g>
    <g id="text_27">
     <!-- min_word_count -->
     <g transform="translate(63 51.158437)scale(0.1 -0.1)">
      <use xlink:href="#DejaVuSans-109"/>
      <use x="97.412109" xlink:href="#DejaVuSans-105"/>
      <use x="125.195312" xlink:href="#DejaVuSans-110"/>
      <use x="188.574219" xlink:href="#DejaVuSans-95"/>
      <use x="238.574219" xlink:href="#DejaVuSans-119"/>
      <use x="320.361328" xlink:href="#DejaVuSans-111"/>
      <use x="381.542969" xlink:href="#DejaVuSans-114"/>
      <use x="420.90625" xlink:href="#DejaVuSans-100"/>
      <use x="484.382812" xlink:href="#DejaVuSans-95"/>
      <use x="534.382812" xlink:href="#DejaVuSans-99"/>
      <use x="589.363281" xlink:href="#DejaVuSans-111"/>
      <use x="650.544922" xlink:href="#DejaVuSans-117"/>
      <use x="713.923828" xlink:href="#DejaVuSans-110"/>
      <use x="777.302734" xlink:href="#DejaVuSans-116"/>
     </g>
    </g>
    <g id="line2d_33"/>
    <g id="line2d_34">
     <g>
      <use style="fill:#482173;stroke:#482173;" x="93.425" xlink:href="#m8069025d7c" y="62.614688"/>
     </g>
    </g>
    <g id="text_28">
     <!-- $\mathdefault{10}$ -->
     <g transform="translate(111.425 66.114688)scale(0.1 -0.1)">
      <use transform="translate(0 0.78125)" xlink:href="#DejaVuSans-49"/>
      <use transform="translate(63.623047 0.78125)" xlink:href="#DejaVuSans-48"/>
     </g>
    </g>
    <g id="line2d_35"/>
    <g id="line2d_36">
     <g>
      <use style="fill:#424186;stroke:#424186;" x="93.425" xlink:href="#m6ef33096dd" y="77.292813"/>
     </g>
    </g>
    <g id="text_29">
     <!-- $\mathdefault{20}$ -->
     <g transform="translate(111.425 80.792813)scale(0.1 -0.1)">
      <use transform="translate(0 0.78125)" xlink:href="#DejaVuSans-50"/>
      <use transform="translate(63.623047 0.78125)" xlink:href="#DejaVuSans-48"/>
     </g>
    </g>
    <g id="line2d_37"/>
    <g id="line2d_38">
     <g>
      <use style="fill:#355e8d;stroke:#355e8d;" x="93.425" xlink:href="#m31061e2c6e" y="91.970937"/>
     </g>
    </g>
    <g id="text_30">
     <!-- $\mathdefault{30}$ -->
     <g transform="translate(111.425 95.470937)scale(0.1 -0.1)">
      <use transform="translate(0 0.78125)" xlink:href="#DejaVuSans-51"/>
      <use transform="translate(63.623047 0.78125)" xlink:href="#DejaVuSans-48"/>
     </g>
    </g>
    <g id="line2d_39"/>
    <g id="line2d_40">
     <g>
      <use style="fill:#2a778e;stroke:#2a778e;" x="93.425" xlink:href="#m7e72c32747" y="106.649063"/>
     </g>
    </g>
    <g id="text_31">
     <!-- $\mathdefault{40}$ -->
     <g transform="translate(111.425 110.149063)scale(0.1 -0.1)">
      <use transform="translate(0 0.78125)" xlink:href="#DejaVuSans-52"/>
      <use transform="translate(63.623047 0.78125)" xlink:href="#DejaVuSans-48"/>
     </g>
    </g>
    <g id="line2d_41"/>
    <g id="line2d_42">
     <g>
      <use style="fill:#21918c;stroke:#21918c;" x="93.425" xlink:href="#m5d4c6193d7" y="121.327188"/>
     </g>
    </g>
    <g id="text_32">
     <!-- $\mathdefault{50}$ -->
     <g transform="translate(111.425 124.827188)scale(0.1 -0.1)">
      <use transform="translate(0 0.78125)" xlink:href="#DejaVuSans-53"/>
      <use transform="translate(63.623047 0.78125)" xlink:href="#DejaVuSans-48"/>
     </g>
    </g>
    <g id="line2d_43"/>
    <g id="line2d_44">
     <g>
      <use style="fill:#23a983;stroke:#23a983;" x="93.425" xlink:href="#m076cbb019c" y="136.005313"/>
     </g>
    </g>
    <g id="text_33">
     <!-- $\mathdefault{60}$ -->
     <g transform="translate(111.425 139.505313)scale(0.1 -0.1)">
      <use transform="translate(0 0.78125)" xlink:href="#DejaVuSans-54"/>
      <use transform="translate(63.623047 0.78125)" xlink:href="#DejaVuSans-48"/>
     </g>
    </g>
    <g id="line2d_45"/>
    <g id="line2d_46">
     <g>
      <use style="fill:#46c06f;stroke:#46c06f;" x="93.425" xlink:href="#m58a634c760" y="150.683437"/>
     </g>
    </g>
    <g id="text_34">
     <!-- $\mathdefault{70}$ -->
     <g transform="translate(111.425 154.183437)scale(0.1 -0.1)">
      <use transform="translate(0 0.78125)" xlink:href="#DejaVuSans-55"/>
      <use transform="translate(63.623047 0.78125)" xlink:href="#DejaVuSans-48"/>
     </g>
    </g>
    <g id="line2d_47"/>
    <g id="line2d_48">
     <g>
      <use style="fill:#7fd34e;stroke:#7fd34e;" x="93.425" xlink:href="#mb3ee6a641f" y="165.361562"/>
     </g>
    </g>
    <g id="text_35">
     <!-- $\mathdefault{80}$ -->
     <g transform="translate(111.425 168.861562)scale(0.1 -0.1)">
      <use transform="translate(0 0.78125)" xlink:href="#DejaVuSans-56"/>
      <use transform="translate(63.623047 0.78125)" xlink:href="#DejaVuSans-48"/>
     </g>
    </g>
    <g id="line2d_49"/>
    <g id="line2d_50">
     <g>
      <use style="fill:#c2df23;stroke:#c2df23;" x="93.425" xlink:href="#m9ec4732f28" y="180.039687"/>
     </g>
    </g>
    <g id="text_36">
     <!-- $\mathdefault{90}$ -->
     <g transform="translate(111.425 183.539687)scale(0.1 -0.1)">
      <use transform="translate(0 0.78125)" xlink:href="#DejaVuSans-57"/>
      <use transform="translate(63.623047 0.78125)" xlink:href="#DejaVuSans-48"/>
     </g>
    </g>
   </g>
  </g>
 </g>
 <defs>
  <clipPath id="p5a2bf7ec2e">
   <rect height="217.44" width="334.8" x="54" y="34.56"/>
  </clipPath>
 </defs>
</svg>
